<svg xmlns="http://www.w3.org/2000/svg" width="17" height="20" viewBox="0 0 17 20" fill="none">
<path d="M14.3101 11.18V11.3568L14.4767 11.4157C15.0116 11.6048 15.475 11.9548 15.8032 12.4176C16.1314 12.8803 16.3084 13.4331 16.3101 14.0004C16.3101 14.0005 16.3101 14.0006 16.3101 14.0007L16.3101 16C16.3101 16.1989 16.231 16.3897 16.0904 16.5303C15.9497 16.671 15.759 16.75 15.5601 16.75H12.4201H12.2289L12.1788 16.9344C11.9629 17.7288 11.4916 18.4301 10.8376 18.9301C10.1836 19.4301 9.38328 19.701 8.56006 19.701C7.73684 19.701 6.93649 19.4301 6.28249 18.9301C5.6285 18.4301 5.1572 17.7288 4.94131 16.9344L4.89119 16.75H4.70006H1.56006C1.36115 16.75 1.17038 16.671 1.02973 16.5303C0.889076 16.3897 0.810059 16.1989 0.810059 16V14.0004C0.811723 13.4331 0.988762 12.8803 1.31692 12.4176C1.64514 11.9548 2.10847 11.6048 2.64339 11.4157L2.81006 11.3568V11.18L2.81006 8.00025C2.81006 8.00017 2.81006 8.00008 2.81006 8C2.81149 6.64225 3.29335 5.3288 4.1703 4.29225C5.04731 3.25562 6.26288 2.56281 7.60173 2.3365L7.81006 2.30129V2.09V1C7.81006 0.801088 7.88908 0.610322 8.02973 0.46967C8.17038 0.329018 8.36115 0.25 8.56006 0.25C8.75897 0.25 8.94974 0.329018 9.09039 0.46967C9.23104 0.610322 9.31006 0.801088 9.31006 1V2.09V2.30129L9.51839 2.3365C10.8572 2.56281 12.0728 3.25562 12.9498 4.29225C13.8268 5.32887 14.3087 6.64241 14.3101 8.00025V11.18ZM12.5601 11.25H12.8101V11V8C12.8101 6.87283 12.3623 5.79183 11.5653 4.9948C10.7682 4.19777 9.68723 3.75 8.56006 3.75C7.43289 3.75 6.35188 4.19777 5.55485 4.9948C4.75782 5.79183 4.31006 6.87283 4.31006 8V11V11.25H4.56006H12.5601ZM6.84006 16.75H6.40706L6.62355 17.125C6.81987 17.4651 7.10178 17.7478 7.44123 17.9452C7.7807 18.1425 8.16589 18.2476 8.55855 18.25L8.56157 18.25C8.95422 18.2476 9.33942 18.1425 9.67888 17.9452C10.0183 17.7478 10.3002 17.4651 10.4966 17.125L10.7131 16.75H10.2801H6.84006ZM14.5601 15.25H14.8101V15V14C14.8101 13.6685 14.6784 13.3505 14.4439 13.1161C14.2095 12.8817 13.8916 12.75 13.5601 12.75H3.56006C3.22854 12.75 2.9106 12.8817 2.67618 13.1161C2.44175 13.3505 2.31006 13.6685 2.31006 14V15V15.25H2.56006H14.5601Z" fill="#333333" stroke="white" stroke-width="0.5"/>
</svg>