<svg width="25" height="24" viewBox="0 0 25 24" fill="none" xmlns="http://www.w3.org/2000/svg">
<g opacity="0.8" clip-path="url(#clip0_155_4267)">
<path d="M18.3101 13.18V13.3568L18.4767 13.4157C19.0116 13.6048 19.475 13.9548 19.8032 14.4176C20.1314 14.8803 20.3084 15.4331 20.3101 16.0004C20.3101 16.0005 20.3101 16.0006 20.3101 16.0007L20.3101 18C20.3101 18.1989 20.231 18.3897 20.0904 18.5303C19.9497 18.671 19.759 18.75 19.5601 18.75H16.4201H16.2289L16.1788 18.9344C15.9629 19.7288 15.4916 20.4301 14.8376 20.9301C14.1836 21.4301 13.3833 21.701 12.5601 21.701C11.7368 21.701 10.9365 21.4301 10.2825 20.9301C9.6285 20.4301 9.1572 19.7288 8.94131 18.9344L8.89119 18.75H8.70006H5.56006C5.36115 18.75 5.17038 18.671 5.02973 18.5303C4.88908 18.3897 4.81006 18.1989 4.81006 18V16.0004C4.81172 15.4331 4.98876 14.8803 5.31692 14.4176C5.64514 13.9548 6.10847 13.6048 6.64339 13.4157L6.81006 13.3568V13.18L6.81006 10.0003C6.81006 10.0002 6.81006 10.0001 6.81006 10C6.81149 8.64225 7.29335 7.3288 8.1703 6.29225C9.04731 5.25562 10.2629 4.56281 11.6017 4.3365L11.8101 4.30129V4.09V3C11.8101 2.80109 11.8891 2.61032 12.0297 2.46967C12.1704 2.32902 12.3611 2.25 12.5601 2.25C12.759 2.25 12.9497 2.32902 13.0904 2.46967C13.231 2.61032 13.3101 2.80109 13.3101 3V4.09V4.30129L13.5184 4.3365C14.8572 4.56281 16.0728 5.25562 16.9498 6.29225C17.8268 7.32887 18.3087 8.64241 18.3101 10.0003V13.18ZM16.5601 13.25H16.8101V13V10C16.8101 8.87283 16.3623 7.79183 15.5653 6.9948C14.7682 6.19777 13.6872 5.75 12.5601 5.75C11.4329 5.75 10.3519 6.19777 9.55485 6.9948C8.75782 7.79183 8.31006 8.87283 8.31006 10V13V13.25H8.56006H16.5601ZM10.8401 18.75H10.4071L10.6235 19.125C10.8199 19.4651 11.1018 19.7478 11.4412 19.9452C11.7807 20.1425 12.1659 20.2476 12.5585 20.25L12.5616 20.25C12.9542 20.2476 13.3394 20.1425 13.6789 19.9452C14.0183 19.7478 14.3002 19.4651 14.4966 19.125L14.7131 18.75H14.2801H10.8401ZM18.5601 17.25H18.8101V17V16C18.8101 15.6685 18.6784 15.3505 18.4439 15.1161C18.2095 14.8817 17.8916 14.75 17.5601 14.75H7.56006C7.22854 14.75 6.9106 14.8817 6.67618 15.1161C6.44175 15.3505 6.31006 15.6685 6.31006 16V17V17.25H6.56006H18.5601Z" fill="#333333" stroke="white" stroke-width="0.5"/>
<circle cx="19.5601" cy="16" r="4.5" fill="#F72020" stroke="white"/>
</g>
<defs>
<clipPath id="clip0_155_4267">
<rect width="24" height="24" fill="white" transform="translate(0.560059)"/>
</clipPath>
</defs>
</svg>
