<svg width="30" height="30" viewBox="0 0 30 30" fill="none" xmlns="http://www.w3.org/2000/svg">
<path fill-rule="evenodd" clip-rule="evenodd" d="M6.66339 0H23.3434C27.1431 0.130411 30.1213 3.3099 30.0034 7.11V16.89C30.0599 18.7253 29.3825 20.5074 28.1213 21.8418C26.86 23.1763 25.1189 23.953 23.2834 24H9.00339C8.01517 24.0204 7.07802 24.443 6.40839 25.17L2.85339 28.965C2.5522 29.2935 2.129 29.4834 1.68339 29.49C1.22315 29.4783 0.786706 29.2831 0.471177 28.9478C0.155649 28.6126 -0.0127768 28.1651 0.00338577 27.705V7.11C-0.114562 3.3099 2.86369 0.130411 6.66339 0ZM23.3434 21.75C25.9008 21.6206 27.8723 19.4479 27.7534 16.89V7.11C27.8723 4.55208 25.9008 2.3794 23.3434 2.25H6.66338C4.10597 2.3794 2.13447 4.55208 2.25338 7.11V26.31L4.69838 23.64C5.81652 22.4506 7.37102 21.7681 9.00338 21.75H23.3434Z" fill="#374B4F"/>
<path d="M9.37838 10.125H16.8784C17.4997 10.125 18.0034 9.62132 18.0034 9C18.0034 8.37868 17.4997 7.875 16.8784 7.875H9.37838C8.75706 7.875 8.25338 8.37868 8.25338 9C8.25338 9.62132 8.75706 10.125 9.37838 10.125Z" fill="#374B4F"/>
<path d="M20.6284 13.875H9.37838C8.75706 13.875 8.25338 14.3787 8.25338 15C8.25338 15.6213 8.75706 16.125 9.37838 16.125H20.6284C21.2497 16.125 21.7534 15.6213 21.7534 15C21.7534 14.3787 21.2497 13.875 20.6284 13.875Z" fill="#374B4F"/>
</svg>
