<svg width="36" height="36" viewBox="0 0 36 36" fill="none" xmlns="http://www.w3.org/2000/svg">
<path fill-rule="evenodd" clip-rule="evenodd" d="M9.66339 3H26.3434C30.1431 3.13041 33.1213 6.3099 33.0034 10.11V19.89C33.0599 21.7253 32.3825 23.5074 31.1213 24.8418C29.86 26.1763 28.1189 26.953 26.2834 27H12.0034C11.0152 27.0204 10.078 27.443 9.40839 28.17L5.85339 31.965C5.5522 32.2935 5.129 32.4834 4.68339 32.49C4.22315 32.4783 3.78671 32.2831 3.47118 31.9478C3.15565 31.6126 2.98722 31.1651 3.00339 30.705V10.11C2.88544 6.3099 5.86369 3.13041 9.66339 3ZM26.3434 24.75C28.9008 24.6206 30.8723 22.4479 30.7534 19.89V10.11C30.8723 7.55208 28.9008 5.3794 26.3434 5.25H9.66338C7.10597 5.3794 5.13447 7.55208 5.25338 10.11V29.31L7.69838 26.64C8.81652 25.4506 10.371 24.7681 12.0034 24.75H26.3434Z" fill="white"/>
<path d="M12.3784 13.125H19.8784C20.4997 13.125 21.0034 12.6213 21.0034 12C21.0034 11.3787 20.4997 10.875 19.8784 10.875H12.3784C11.7571 10.875 11.2534 11.3787 11.2534 12C11.2534 12.6213 11.7571 13.125 12.3784 13.125Z" fill="white"/>
<path d="M23.6284 16.875H12.3784C11.7571 16.875 11.2534 17.3787 11.2534 18C11.2534 18.6213 11.7571 19.125 12.3784 19.125H23.6284C24.2497 19.125 24.7534 18.6213 24.7534 18C24.7534 17.3787 24.2497 16.875 23.6284 16.875Z" fill="white"/>
</svg>
