<svg width="31" height="31" viewBox="0 0 31 31" fill="none" xmlns="http://www.w3.org/2000/svg">
<path d="M9.975 8.385C9.53174 7.97196 8.84099 7.98415 8.41257 8.41257C7.98415 8.84099 7.97196 9.53174 8.385 9.975L14.055 15.645V22.68C14.055 23.3013 14.5587 23.805 15.18 23.805C15.8013 23.805 16.305 23.3013 16.305 22.68V15.18C16.3047 14.8817 16.186 14.5958 15.975 14.385L9.975 8.385Z" fill="#374B4F"/>
<path fill-rule="evenodd" clip-rule="evenodd" d="M12 0H18.36C21.5426 0 24.5948 1.26428 26.8453 3.51472C29.0957 5.76516 30.36 8.8174 30.36 12V18.36C30.36 24.9874 24.9874 30.36 18.36 30.36H12C5.37258 30.36 0 24.9874 0 18.36V12C0 5.37258 5.37258 0 12 0ZM18.36 28.11C23.7414 28.1017 28.1017 23.7414 28.11 18.36V12C28.1017 6.61865 23.7414 2.25826 18.36 2.25H12C6.61865 2.25826 2.25826 6.61865 2.25 12V18.36C2.25826 23.7414 6.61865 28.1017 12 28.11H18.36Z" fill="#374B4F"/>
</svg>
