<svg width="36" height="36" viewBox="0 0 36 36" fill="none" xmlns="http://www.w3.org/2000/svg">
<path d="M12.975 11.385C12.5317 10.972 11.841 10.9841 11.4126 11.4126C10.9842 11.841 10.972 12.5317 11.385 12.975L17.055 18.645V25.68C17.055 26.3013 17.5587 26.805 18.18 26.805C18.8013 26.805 19.305 26.3013 19.305 25.68V18.18C19.3047 17.8817 19.186 17.5958 18.975 17.385L12.975 11.385Z" fill="white"/>
<path fill-rule="evenodd" clip-rule="evenodd" d="M15 3H21.36C24.5426 3 27.5948 4.26428 29.8453 6.51472C32.0957 8.76515 33.36 11.8174 33.36 15V21.36C33.36 27.9874 27.9874 33.36 21.36 33.36H15C8.37258 33.36 3 27.9874 3 21.36V15C3 8.37258 8.37258 3 15 3ZM21.36 31.11C26.7414 31.1017 31.1017 26.7414 31.11 21.36V15C31.1017 9.61865 26.7414 5.25826 21.36 5.25H15C9.61865 5.25826 5.25826 9.61865 5.25 15V21.36C5.25826 26.7414 9.61865 31.1017 15 31.11H21.36Z" fill="white"/>
</svg>
