<svg width="14" height="17" viewBox="0 0 14 17" fill="none" xmlns="http://www.w3.org/2000/svg">
<path d="M5 12.5925H9C9.55 12.5925 10 12.1425 10 11.5925V6.5925H11.59C12.48 6.5925 12.93 5.5125 12.3 4.8825L7.71 0.2925C7.32 -0.0975 6.69 -0.0975 6.3 0.2925L1.71 4.8825C1.08 5.5125 1.52 6.5925 2.41 6.5925H4V11.5925C4 12.1425 4.45 12.5925 5 12.5925ZM1 14.5925H13C13.55 14.5925 14 15.0425 14 15.5925C14 16.1425 13.55 16.5925 13 16.5925H1C0.45 16.5925 0 16.1425 0 15.5925C0 15.0425 0.45 14.5925 1 14.5925Z" fill="black" fill-opacity="0.54"/>
</svg>
