<svg width="29" height="29" viewBox="0 0 29 29" fill="none" xmlns="http://www.w3.org/2000/svg">
<path fill-rule="evenodd" clip-rule="evenodd" d="M8.68511 18.905L9.78011 13.79C9.93953 13.0792 10.2986 12.4287 10.8151 11.915L20.8201 2.00002C21.8347 0.966478 23.2122 0.369189 24.6601 0.335016C25.7521 0.319369 26.8051 0.740576 27.5851 1.50502C29.2894 3.51871 29.0694 6.52584 27.0901 8.27002L17.0851 18.275C16.5714 18.7915 15.9209 19.1506 15.2101 19.31L10.0951 20.405H9.81011C9.43618 20.4193 9.07903 20.2492 8.8545 19.9498C8.62997 19.6505 8.56667 19.26 8.68511 18.905ZM12.4051 13.52C12.1949 13.7237 12.0489 13.9844 11.9851 14.27L11.2501 17.765L14.7451 17.015C15.0307 16.9512 15.2914 16.8052 15.4951 16.595L25.5001 6.59002C26.5961 5.71255 26.8136 4.13073 25.9951 2.99002C25.6367 2.64758 25.1556 2.46377 24.6601 2.48002C23.806 2.51431 22.9988 2.88022 22.4101 3.50002L12.4051 13.52Z" fill="#374B4F"/>
<path d="M26.8651 12.395C26.2472 12.4031 25.7482 12.9021 25.7401 13.52V22.055C25.7602 23.2614 25.295 24.4254 24.4489 25.2856C23.6028 26.1458 22.4467 26.6302 21.2401 26.63H6.94512C4.45117 26.5811 2.45279 24.5494 2.44512 22.055V7.82002C2.48606 5.32265 4.52242 3.31968 7.02012 3.32002H15.5551C16.1764 3.32002 16.6801 2.81634 16.6801 2.19502C16.6801 1.5737 16.1764 1.07002 15.5551 1.07002H6.94512C3.20487 1.06979 0.161219 4.07999 0.120117 7.82002V22.055C0.120117 25.8244 3.17577 28.88 6.94512 28.88H21.1801C24.9436 28.8717 27.9901 25.8185 27.9901 22.055V13.52C27.982 12.9021 27.4831 12.4031 26.8651 12.395Z" fill="#374B4F"/>
</svg>
