<svg width="36" height="36" viewBox="0 0 36 36" fill="none" xmlns="http://www.w3.org/2000/svg">
<path fill-rule="evenodd" clip-rule="evenodd" d="M11.685 22.9049L12.78 17.7899C12.9394 17.0791 13.2985 16.4286 13.815 15.9149L23.82 5.99989C24.8346 4.96636 26.2121 4.36907 27.66 4.33489C28.752 4.31925 29.805 4.74045 30.585 5.50489C32.2893 7.51859 32.0693 10.5257 30.09 12.2699L20.085 22.2749C19.5713 22.7914 18.9208 23.1505 18.21 23.3099L13.095 24.4049H12.81C12.4361 24.4192 12.0789 24.2491 11.8544 23.9497C11.6299 23.6504 11.5666 23.2599 11.685 22.9049ZM15.405 17.5199C15.1948 17.7236 15.0488 17.9843 14.985 18.2699L14.25 21.7649L17.745 21.0149C18.0306 20.9511 18.2913 20.8051 18.495 20.5949L28.5 10.5899C29.596 9.71243 29.8135 8.13061 28.995 6.98989C28.6366 6.64745 28.1554 6.46365 27.66 6.47989C26.8059 6.51419 25.9987 6.88009 25.41 7.49989L15.405 17.5199Z" fill="white"/>
<path d="M29.865 16.3949C29.2471 16.403 28.7481 16.902 28.74 17.5199V26.0549C28.7601 27.2613 28.2949 28.4253 27.4488 29.2855C26.6027 30.1457 25.4466 30.6301 24.24 30.6299H9.94501C7.45106 30.581 5.45268 28.5493 5.44501 26.0549V11.8199C5.48596 9.32253 7.52231 7.31956 10.02 7.31989H18.555C19.1763 7.31989 19.68 6.81621 19.68 6.19489C19.68 5.57357 19.1763 5.06989 18.555 5.06989H9.94501C6.20476 5.06967 3.16111 8.07987 3.12001 11.8199V26.0549C3.12001 29.8242 6.17567 32.8799 9.94501 32.8799H24.18C27.9435 32.8716 30.99 29.8184 30.99 26.0549V17.5199C30.9819 16.902 30.483 16.403 29.865 16.3949Z" fill="white"/>
</svg>
