<svg width="34" height="23" viewBox="0 0 34 23" fill="none" xmlns="http://www.w3.org/2000/svg">
<path fill-rule="evenodd" clip-rule="evenodd" d="M22.0001 6.13999C21.9511 8.59005 19.9506 10.5505 17.5001 10.55C15.0787 10.5101 13.1232 8.56117 13.0751 6.13999V4.44499C13.0748 3.44657 13.4775 2.49028 14.1919 1.79282C14.9063 1.09535 15.872 0.715733 16.8701 0.739986H18.2801C19.2653 0.735997 20.2115 1.12458 20.9096 1.81984C21.6077 2.51509 22.0001 3.45976 22.0001 4.44499V6.13999ZM16.8251 2.94499C15.9967 2.94499 15.3251 3.61656 15.3251 4.44499L15.3851 6.13999C15.3851 7.34121 16.3589 8.31499 17.5601 8.31499C18.7613 8.31499 19.7351 7.34121 19.7351 6.13999V4.44499C19.7351 3.61656 19.0635 2.94499 18.2351 2.94499H16.8251Z" fill="#374B4F"/>
<path fill-rule="evenodd" clip-rule="evenodd" d="M33.2201 15.95L33.3851 18.29C33.5584 19.0223 33.3892 19.7938 32.9251 20.3862C32.461 20.9787 31.7526 21.3279 31.0001 21.335H24.2651C23.6775 21.9613 22.8588 22.3191 22.0001 22.325H13.0001C12.098 22.3371 11.2344 21.9599 10.6301 21.29C10.4905 21.3055 10.3497 21.3055 10.2101 21.29H3.32508C2.59304 21.2624 1.91085 20.9119 1.4621 20.3329C1.01336 19.7538 0.844172 19.0058 1.00008 18.29L1.22508 15.95C1.44396 14.8335 2.41249 14.0211 3.55008 14H10.0001C10.2693 13.9851 10.539 14.0207 10.7951 14.105C11.3706 13.3861 12.2443 12.9714 13.1651 12.98H21.8351C22.702 12.9768 23.5279 13.3487 24.1001 14C24.2046 13.9852 24.3106 13.9852 24.4151 14H30.8951C32.0327 14.0211 33.0012 14.8335 33.2201 15.95ZM24.3251 19.04H31.1201C31.166 18.9516 31.1715 18.8477 31.1351 18.755V18.455L30.9851 16.325L30.8951 16.205H24.1001C23.466 16.2073 22.8607 15.9401 22.4351 15.47C22.2863 15.292 22.0671 15.1879 21.8351 15.185H13.1651C12.9138 15.1882 12.6771 15.3038 12.5201 15.5C12.0919 16.0083 11.4597 16.2996 10.7951 16.295C10.5229 16.2962 10.2531 16.2453 10.0001 16.145H3.62509C3.53509 16.145 3.53509 16.175 3.53509 16.265L3.38509 18.395V18.695C3.34402 18.7855 3.34402 18.8894 3.38509 18.98H10.2701C10.4298 18.9653 10.5904 18.9653 10.7501 18.98C11.3597 18.9913 11.9365 19.258 12.3401 19.715C12.5056 19.9087 12.7454 20.0231 13.0001 20.03H22.0601C22.3152 20.025 22.5558 19.9102 22.7201 19.715C23.1418 19.2823 23.7208 19.0388 24.3251 19.04Z" fill="#374B4F"/>
<path fill-rule="evenodd" clip-rule="evenodd" d="M30.9551 8.38999C30.9551 10.2125 29.4776 11.69 27.6551 11.69C26.7773 11.694 25.934 11.3481 25.3119 10.7288C24.6898 10.1095 24.3401 9.26781 24.3401 8.38999V7.12999C24.3401 6.39401 24.6325 5.68818 25.1529 5.16776C25.6733 4.64735 26.3791 4.35499 27.1151 4.35499H28.1801C29.7127 4.35499 30.9551 5.5974 30.9551 7.12999V8.38999ZM26.7439 6.81876C26.6454 6.91721 26.5901 7.05075 26.5901 7.18999V8.44999C26.654 8.98557 27.1082 9.38882 27.6476 9.38882C28.187 9.38882 28.6412 8.98557 28.7051 8.44999V7.18999C28.7051 6.90004 28.47 6.66499 28.1801 6.66499H27.1151C26.9758 6.66499 26.8423 6.7203 26.7439 6.81876Z" fill="#374B4F"/>
<path fill-rule="evenodd" clip-rule="evenodd" d="M9.13324 10.7288C8.51112 11.3481 7.6679 11.694 6.79009 11.69C5.91487 11.69 5.07551 11.3423 4.45664 10.7234C3.83777 10.1046 3.49009 9.2652 3.49009 8.38999V7.12999C3.49009 5.5974 4.7325 4.35499 6.26509 4.35499H7.33009C8.86268 4.35499 10.1051 5.5974 10.1051 7.12999V8.38999C10.1051 9.26781 9.75536 10.1095 9.13324 10.7288ZM6.26509 6.66499C5.97514 6.66499 5.74009 6.90004 5.74009 7.18999V8.44999C5.80399 8.98557 6.25821 9.38882 6.79759 9.38882C7.33697 9.38882 7.79119 8.98557 7.85509 8.44999V7.18999C7.85509 6.90004 7.62004 6.66499 7.33009 6.66499H6.26509Z" fill="#374B4F"/>
</svg>
