<svg width="36" height="36" viewBox="0 0 36 36" fill="none" xmlns="http://www.w3.org/2000/svg">
<path fill-rule="evenodd" clip-rule="evenodd" d="M24 13.1399C23.951 15.5899 21.9506 17.5504 19.5 17.5499C17.0787 17.51 15.1231 15.5611 15.075 13.1399V11.4449C15.0747 10.4464 15.4774 9.49016 16.1918 8.79269C16.9062 8.09522 17.8719 7.71561 18.87 7.73986H20.28C21.2652 7.73588 22.2115 8.12446 22.9095 8.81972C23.6076 9.51497 24 10.4596 24 11.4449V13.1399ZM18.825 9.94486C17.9966 9.94486 17.325 10.6164 17.325 11.4449L17.385 13.1399C17.385 14.3411 18.3588 15.3149 19.56 15.3149C20.7612 15.3149 21.735 14.3411 21.735 13.1399V11.4449C21.735 10.6164 21.0634 9.94486 20.235 9.94486H18.825Z" fill="white"/>
<path fill-rule="evenodd" clip-rule="evenodd" d="M35.22 22.9499L35.385 25.2899C35.5584 26.0222 35.3891 26.7936 34.925 27.3861C34.461 27.9786 33.7526 28.3277 33 28.3349H26.265C25.6775 28.9612 24.8587 29.319 24 29.3249H15C14.0979 29.337 13.2343 28.9598 12.63 28.2899C12.4904 28.3053 12.3496 28.3053 12.21 28.2899H5.32501C4.59297 28.2623 3.91077 27.9118 3.46203 27.3327C3.01328 26.7537 2.8441 26.0056 3.00001 25.2899L3.22501 22.9499C3.44389 21.8333 4.41242 21.021 5.55001 20.9999H12C12.2692 20.9849 12.5389 21.0206 12.795 21.1049C13.3705 20.386 14.2442 19.9713 15.165 19.9799H23.835C24.7019 19.9766 25.5278 20.3486 26.1 20.9999C26.2045 20.9851 26.3105 20.9851 26.415 20.9999H32.895C34.0326 21.021 35.0011 21.8333 35.22 22.9499ZM26.325 26.0399H33.12C33.1659 25.9515 33.1714 25.8476 33.135 25.7549V25.4549L32.985 23.3249L32.895 23.2049H26.1C25.4659 23.2072 24.8606 22.94 24.435 22.4699C24.2862 22.2919 24.067 22.1878 23.835 22.1849H15.165C14.9137 22.1881 14.6771 22.3037 14.52 22.4999C14.0918 23.0082 13.4596 23.2995 12.795 23.2949C12.5229 23.2961 12.253 23.2452 12 23.1449H5.62501C5.53501 23.1449 5.53501 23.1749 5.53501 23.2649L5.38501 25.3949V25.6949C5.34394 25.7854 5.34394 25.8893 5.38501 25.9799H12.27C12.4297 25.9652 12.5903 25.9652 12.75 25.9799C13.3596 25.9912 13.9365 26.2578 14.34 26.7149C14.5055 26.9085 14.7453 27.023 15 27.0299H24.06C24.3151 27.0249 24.5557 26.9101 24.72 26.7149C25.1418 26.2822 25.7208 26.0387 26.325 26.0399Z" fill="white"/>
<path fill-rule="evenodd" clip-rule="evenodd" d="M32.955 15.3899C32.955 17.2124 31.4775 18.6899 29.655 18.6899C28.7772 18.6939 27.934 18.3479 27.3119 17.7286C26.6897 17.1093 26.34 16.2677 26.34 15.3899V14.1299C26.34 13.3939 26.6324 12.6881 27.1528 12.1676C27.6732 11.6472 28.379 11.3549 29.115 11.3549H30.18C31.7126 11.3549 32.955 12.5973 32.955 14.1299V15.3899ZM28.7438 13.8186C28.6453 13.9171 28.59 14.0506 28.59 14.1899V15.4499C28.6539 15.9854 29.1081 16.3887 29.6475 16.3887C30.1869 16.3887 30.6411 15.9854 30.705 15.4499V14.1899C30.705 13.8999 30.47 13.6649 30.18 13.6649H29.115C28.9758 13.6649 28.8422 13.7202 28.7438 13.8186Z" fill="white"/>
<path fill-rule="evenodd" clip-rule="evenodd" d="M11.1332 17.7286C10.511 18.3479 9.66782 18.6939 8.79001 18.6899C7.9148 18.6899 7.07543 18.3422 6.45656 17.7233C5.83769 17.1044 5.49001 16.2651 5.49001 15.3899V14.1299C5.49001 12.5973 6.73242 11.3549 8.26501 11.3549H9.33001C10.8626 11.3549 12.105 12.5973 12.105 14.1299V15.3899C12.105 16.2677 11.7553 17.1093 11.1332 17.7286ZM8.26501 13.6649C7.97506 13.6649 7.74001 13.8999 7.74001 14.1899V15.4499C7.80391 15.9854 8.25813 16.3887 8.79751 16.3887C9.33689 16.3887 9.79111 15.9854 9.85501 15.4499V14.1899C9.85501 13.8999 9.61996 13.6649 9.33001 13.6649H8.26501Z" fill="white"/>
</svg>
