<svg width="1448" height="966" viewBox="0 0 1448 966" fill="none" xmlns="http://www.w3.org/2000/svg">
<g clip-path="url(#clip0_523_4983)">
<rect width="1448" height="966" rx="50" fill="white"/>
<path d="M624.176 96.088C624.176 92.4613 624.816 89.1973 626.096 86.296C627.376 83.352 629.125 80.856 631.344 78.808C633.605 76.76 636.272 75.1813 639.344 74.072C642.416 72.9627 645.744 72.408 649.328 72.408C652.912 72.408 656.24 72.9627 659.312 74.072C662.384 75.1813 665.051 76.76 667.312 78.808C669.573 80.856 671.344 83.352 672.624 86.296C673.904 89.1973 674.544 92.4613 674.544 96.088C674.544 99.7147 673.904 103.021 672.624 106.008C671.344 108.995 669.573 111.555 667.312 113.688C665.051 115.779 662.384 117.4 659.312 118.552C656.24 119.704 652.912 120.28 649.328 120.28C645.744 120.28 642.416 119.704 639.344 118.552C636.272 117.4 633.605 115.779 631.344 113.688C629.125 111.555 627.376 108.995 626.096 106.008C624.816 103.021 624.176 99.7147 624.176 96.088ZM640.368 96.088C640.368 97.5813 640.581 98.9467 641.008 100.184C641.477 101.421 642.096 102.488 642.864 103.384C643.675 104.28 644.635 104.984 645.744 105.496C646.853 105.965 648.048 106.2 649.328 106.2C650.608 106.2 651.781 105.965 652.848 105.496C653.957 104.984 654.917 104.28 655.728 103.384C656.539 102.488 657.157 101.421 657.584 100.184C658.053 98.9467 658.288 97.5813 658.288 96.088C658.288 94.6373 658.053 93.3147 657.584 92.12C657.157 90.8827 656.539 89.8587 655.728 89.048C654.917 88.1947 653.957 87.5333 652.848 87.064C651.781 86.5947 650.608 86.36 649.328 86.36C648.048 86.36 646.853 86.5947 645.744 87.064C644.635 87.5333 643.675 88.1947 642.864 89.048C642.096 89.8587 641.477 90.8827 641.008 92.12C640.581 93.3147 640.368 94.6373 640.368 96.088ZM717.198 102.04C717.198 104.941 716.665 107.523 715.598 109.784C714.574 112.045 713.166 113.965 711.374 115.544C709.625 117.08 707.577 118.253 705.23 119.064C702.926 119.875 700.494 120.28 697.934 120.28C695.417 120.28 692.985 119.875 690.638 119.064C688.334 118.253 686.307 117.08 684.558 115.544C682.809 113.965 681.401 112.045 680.334 109.784C679.31 107.523 678.798 104.941 678.798 102.04C678.798 99.1813 679.31 96.6427 680.334 94.424C681.401 92.1627 682.809 90.264 684.558 88.728C686.307 87.192 688.334 86.04 690.638 85.272C692.985 84.4613 695.417 84.056 697.934 84.056C700.494 84.056 702.926 84.4613 705.23 85.272C707.577 86.04 709.625 87.192 711.374 88.728C713.166 90.264 714.574 92.1627 715.598 94.424C716.665 96.6427 717.198 99.1813 717.198 102.04ZM697.934 96.472C696.313 96.472 694.99 97.0267 693.966 98.136C692.985 99.2453 692.494 100.547 692.494 102.04C692.494 103.619 693.006 104.963 694.03 106.072C695.054 107.181 696.377 107.736 697.998 107.736C699.619 107.736 700.942 107.181 701.966 106.072C702.99 104.963 703.502 103.619 703.502 102.04C703.502 100.547 702.969 99.2453 701.902 98.136C700.878 97.0267 699.555 96.472 697.934 96.472ZM746.322 119.896C744.658 119.896 743.015 119.597 741.394 119C739.773 118.36 738.45 117.485 737.426 116.376H737.298V134.36H722.642V85.336H736.53V88.728H736.658C737.895 87.32 739.389 86.2533 741.138 85.528C742.887 84.8027 744.594 84.44 746.258 84.44C748.775 84.44 750.994 84.952 752.914 85.976C754.834 87 756.434 88.344 757.714 90.008C758.994 91.672 759.954 93.5493 760.594 95.64C761.277 97.7307 761.618 99.864 761.618 102.04C761.618 104.259 761.277 106.435 760.594 108.568C759.954 110.701 758.994 112.621 757.714 114.328C756.434 115.992 754.834 117.336 752.914 118.36C751.037 119.384 748.839 119.896 746.322 119.896ZM747.922 102.04C747.922 100.547 747.453 99.2453 746.514 98.136C745.575 97.0267 744.21 96.472 742.418 96.472C740.669 96.472 739.261 97.0267 738.194 98.136C737.17 99.2453 736.658 100.547 736.658 102.04C736.658 103.619 737.17 104.963 738.194 106.072C739.261 107.181 740.669 107.736 742.418 107.736C744.21 107.736 745.575 107.203 746.514 106.136C747.453 105.027 747.922 103.661 747.922 102.04ZM794.664 108.312C794.664 110.573 794.173 112.472 793.192 114.008C792.253 115.544 791.037 116.781 789.544 117.72C788.093 118.616 786.493 119.256 784.744 119.64C782.994 120.067 781.33 120.28 779.752 120.28C776.85 120.28 773.992 119.853 771.176 119C768.402 118.189 765.992 117.016 763.944 115.48L771.176 107.096C772.2 108.035 773.394 108.803 774.76 109.4C776.168 109.955 777.512 110.232 778.792 110.232C779.304 110.232 779.773 110.147 780.2 109.976C780.669 109.763 780.904 109.4 780.904 108.888C780.904 108.333 780.498 107.907 779.688 107.608C778.92 107.267 777.554 106.861 775.592 106.392C774.525 106.136 773.437 105.773 772.328 105.304C771.218 104.792 770.194 104.131 769.256 103.32C768.36 102.509 767.613 101.528 767.016 100.376C766.418 99.1813 766.12 97.7733 766.12 96.152C766.12 93.976 766.589 92.12 767.528 90.584C768.509 89.048 769.725 87.8107 771.176 86.872C772.669 85.8907 774.269 85.1867 775.976 84.76C777.725 84.2907 779.368 84.056 780.904 84.056C783.506 84.056 786.088 84.44 788.648 85.208C791.208 85.976 793.512 87.0427 795.56 88.408L788.648 96.664C787.581 95.9813 786.493 95.448 785.384 95.064C784.274 94.68 783.186 94.488 782.12 94.488C781.394 94.488 780.797 94.5947 780.328 94.808C779.858 94.9787 779.624 95.3413 779.624 95.896C779.624 96.3227 779.88 96.664 780.392 96.92C780.946 97.1333 782.184 97.432 784.104 97.816C785.426 98.072 786.706 98.4773 787.944 99.032C789.224 99.544 790.354 100.227 791.336 101.08C792.36 101.891 793.17 102.893 793.768 104.088C794.365 105.283 794.664 106.691 794.664 108.312ZM810.836 120.024C809.727 120.024 808.681 119.811 807.7 119.384C806.761 119 805.929 118.467 805.204 117.784C804.479 117.101 803.903 116.291 803.476 115.352C803.092 114.413 802.9 113.389 802.9 112.28C802.9 111.213 803.092 110.211 803.476 109.272C803.903 108.333 804.479 107.523 805.204 106.84C805.929 106.115 806.761 105.56 807.7 105.176C808.681 104.749 809.727 104.536 810.836 104.536C811.945 104.536 812.969 104.749 813.908 105.176C814.889 105.56 815.743 106.115 816.468 106.84C817.193 107.523 817.748 108.333 818.132 109.272C818.559 110.211 818.772 111.213 818.772 112.28C818.772 113.389 818.559 114.413 818.132 115.352C817.748 116.291 817.193 117.101 816.468 117.784C815.743 118.467 814.889 119 813.908 119.384C812.969 119.811 811.945 120.024 810.836 120.024ZM803.156 73.688H818.516V102.36H803.156V73.688Z" fill="black"/>
<path fill-rule="evenodd" clip-rule="evenodd" d="M766.217 725.781C838.646 725.781 902.206 671.904 866.511 598.725C830.815 525.547 963.447 527.911 1002.41 477.335C1049.92 415.655 1036.16 153.835 731.141 313.453C682.281 339.022 556.796 287.148 515.172 312.887C466.176 343.184 397.242 405.223 466.176 468.772C500.132 500.075 378.393 581.324 431.712 654.102C483.738 725.115 520.208 657.419 599.416 671.904C678.625 686.388 712.425 725.781 766.217 725.781Z" fill="#EEDCFC"/>
<path d="M682.15 598.472C682.15 598.472 698.826 590.627 705.053 585.169C711.279 579.711 719.019 566.152 719.019 566.152C719.019 566.152 804.042 627.555 859.48 618.796C872.253 616.778 897.142 608.288 898.729 593.328C903.063 552.48 843.099 542.041 856.198 521.326C864.193 508.681 889.03 527.5 889.03 527.5L992.048 578.172C992.048 578.172 956.458 665.902 870.09 669.417C763.846 673.742 682.15 598.472 682.15 598.472Z" fill="white"/>
<path fill-rule="evenodd" clip-rule="evenodd" d="M600.473 254.902C599.506 254.522 594.314 248.164 587.721 247.007C584.726 246.481 587.445 250.295 584.148 250.33C574.329 250.432 558.372 248.587 555.416 250.33C553.219 251.621 558.057 256.13 555.416 256.338C530.494 258.291 492.475 283.174 484.226 295.246C481.601 299.088 502.832 292.57 499.449 294.469C495.652 296.601 491.442 310.56 488.924 321.34C487.181 328.764 486.084 338.318 485.696 348.712C485.373 357.685 485.503 359.17 486.794 364.076C488.278 369.563 489.44 371.177 491.442 370.402C492.152 370.144 492.475 369.176 492.475 367.368C492.475 365.948 493.249 361.687 494.217 357.879L495.896 351.036L496.606 353.876C497.51 357.168 502.803 367.368 507.58 374.792C507.838 375.186 508.947 374.685 509.946 372.269C510.857 370.067 510.487 366.55 512.035 362.78C515.559 354.193 522.48 343.029 530.494 334.092C542.338 320.885 546.267 305.599 557.37 293.329C578.089 270.431 604.093 256.323 600.473 254.902Z" fill="white"/>
<path fill-rule="evenodd" clip-rule="evenodd" d="M499.744 297.584C496.42 300.257 491.487 321.935 491.402 322.297C489.659 329.721 487.979 355.502 489.696 360.382C491.414 365.263 496.223 347.669 496.223 347.669C496.223 347.669 503.491 366.543 509.914 371.718C510.188 371.939 502.28 348.366 499.744 334.605C496.396 316.44 501.635 296.063 499.744 297.584Z" fill="#E7EAEE"/>
<path fill-rule="evenodd" clip-rule="evenodd" d="M623.624 677.248C629.821 675.892 640.278 671.171 644.282 669.557C648.285 667.943 660.485 650.716 664.875 631.285C668.038 616.953 669.652 596.554 667.844 593.132C667.577 592.647 666.601 583.371 669.2 586.4C674.978 593.132 681.837 603.702 703.478 584.762C709.372 579.603 717.185 572.946 715.128 567.06C709.372 550.592 684.423 517.432 680.62 514.92C676.072 511.917 653.087 514.469 618.88 504.372C580.086 492.922 563.933 459.206 548.752 463.595C536.475 467.144 507.06 488.957 499.678 502.769C464.826 567.981 507.06 613.675 516.678 626.799L526.017 630.833L526.339 639.16L526.791 644.389C527.63 654.395 527.953 655.299 532.472 658.656C543.769 667.242 566.041 675.247 586.182 678.087C595.542 679.378 615.877 678.926 623.624 677.248Z" fill="white"/>
<path fill-rule="evenodd" clip-rule="evenodd" d="M529.69 636.112L530.141 641.341C530.981 651.347 531.303 652.25 535.822 655.607C542.487 660.672 552.971 665.535 564.583 669.255C572.655 671.84 581.273 673.874 589.532 675.038C598.893 676.329 619.227 675.878 626.974 674.199C630.803 673.37 599.307 648.625 580.752 655.607C566.503 660.969 532.919 620.07 546.574 609.385C561.892 597.398 533.823 550.122 532.919 539.858C532.015 529.594 528.456 527.142 528.352 527.502C528.248 527.862 528.248 529.09 528.528 532.049C529.732 544.803 529.69 636.112 529.69 636.112Z" fill="#E7EAEE"/>
<path fill-rule="evenodd" clip-rule="evenodd" d="M526.327 536.927C527.682 536.664 528.994 537.548 529.258 538.904C534.13 563.935 554.739 580.88 591.591 589.742C628.661 598.656 653.912 598.175 667.216 588.66C668.339 587.857 667.502 594.735 666.679 595.263C658.002 600.827 628.499 609.13 593.291 601.626C548.274 592.031 527.137 554.178 524.35 539.859C524.087 538.504 524.971 537.191 526.327 536.927Z" fill="#FFB61D"/>
<path fill-rule="evenodd" clip-rule="evenodd" d="M507.554 491.767C508.753 491.081 553.464 542.324 614.824 553.923C676.184 565.523 691.04 558.146 693.428 542.324C693.634 540.959 694.908 540.019 696.273 540.225C697.638 540.431 698.578 541.705 698.372 543.07C695.345 563.122 666.953 567.891 613.983 558.852C561.678 549.927 525.818 528.721 506.626 495.178C505.94 493.98 506.356 492.452 507.554 491.767Z" fill="#FFB61D"/>
<path fill-rule="evenodd" clip-rule="evenodd" d="M765.091 488.925C763.412 488.344 761.605 487.053 760.443 485.568L758.506 483.179L765.349 476.401C775.872 466.072 783.941 455.485 790.913 442.897C793.237 438.701 799.111 424.693 799.111 423.337C799.111 422.885 799.821 421.077 800.661 419.205C801.952 416.494 802.92 415.461 805.696 413.912C808.988 411.975 812.733 411.33 814.346 412.427C817.445 414.493 817.445 421.013 814.346 432.245C810.925 444.576 806.342 453.42 796.852 466.137C795.367 468.074 792.591 471.882 790.59 474.529C785.232 481.63 781.746 485.052 777.034 487.698C772.386 490.281 769.674 490.603 765.091 488.925ZM811.441 483.115L816.089 485.181C817.053 485.626 827.685 490.734 840.457 496.871C861.048 506.765 887.199 519.33 887.358 519.33C887.616 519.33 888.828 516.529 889.101 513.262C889.747 506.226 892.135 496.672 894.911 490.022C896.202 487.053 897.235 483.341 897.235 483.019C897.235 482.871 896.186 482.448 894.468 481.755C892.422 480.93 889.43 479.723 886.132 478.144C869.864 470.333 838.038 454.388 834.1 451.999C830.227 449.74 829.452 449.546 829.452 451.031C829.452 452.968 825.514 461.941 822.48 466.783C820.866 469.429 817.703 474.206 815.444 477.37L811.441 483.115ZM886.261 507.71C888.112 508.783 884.905 510.357 884.13 510.615C879.569 511.003 874.199 510.145 869.799 507.581C867.499 505.95 849.384 495.886 837.368 489.211C831.875 486.159 827.656 483.815 826.806 483.309C824.094 481.695 821.512 479.952 821.06 479.435C819.704 477.692 820.996 476.918 824.804 477.24C827.094 477.434 882.262 505.393 886.261 507.71ZM623.844 676.716C628.824 675.626 636.554 672.364 641.476 670.287C642.68 669.779 643.715 669.342 644.502 669.025C648.506 667.41 660.705 650.184 665.095 630.753C668.258 616.421 669.872 596.022 668.064 592.6C666.975 590.619 673.449 597.266 678.271 602.217C679.733 603.717 681.043 605.062 681.944 605.963C710.09 633.916 751.986 656.381 795.496 666.903C817.187 672.197 832.615 674.069 853.338 674.069C888.133 674.069 915.569 667.226 940.487 652.185C941.671 651.47 942.78 650.814 943.837 650.188C952.523 645.045 957.698 641.982 971.861 626.04C987.747 608.158 1001.88 566.649 1006.59 552.318C1008.66 545.863 1013.69 520.186 1013.69 513.779C1013.69 506.193 1011.05 502.611 1007.43 498.931C1001.04 492.669 992.389 490.41 985.224 493.121L981.867 494.412L980.834 490.991C979.349 485.826 976.251 481.695 971.474 478.596C964.372 473.884 963.34 473.561 956.949 473.561C951.978 473.561 950.622 473.819 947.459 475.304L943.779 476.982L943.005 474.658C941.52 469.881 936.54 463.222 932.676 461.295C929.249 459.587 923.317 459.43 919.184 460.198C910.146 461.876 903.691 466.072 901.044 471.947C900.269 473.754 899.301 475.175 898.914 475.175C898.591 475.175 885.873 471.623 870.703 464.909C868.144 463.773 865.74 462.708 863.483 461.707C836.241 449.632 830.336 447.015 830.872 443.736C831.324 440.96 831.195 439.411 830.421 437.023C829.065 433.02 827.516 431.923 823.126 431.923C819.64 431.923 819.64 431.923 820.027 430.18C822.093 420.303 822.028 414.622 819.834 411.007C818.349 408.618 816.606 407.65 812.603 407.069C810.279 406.746 809.182 406.94 806.6 408.36C804.857 409.264 803.372 409.909 803.243 409.78C803.114 409.651 803.566 406.101 804.276 401.905C809.569 370.854 805.48 344.1 791.988 315.696C791.858 315.424 791.709 315.103 791.537 314.735C787.436 305.929 770.943 270.52 723.776 252.653C721.641 251.844 719.621 251.063 717.679 250.311L717.679 250.311C701.612 244.092 690.931 239.957 665.159 240C636.274 240.048 626.491 244.132 607.447 252.847C604.8 254.073 602.476 254.783 602.283 254.525C602.089 254.202 600.863 253.428 599.636 252.782C598.409 252.137 595.763 250.523 593.826 249.232C588.274 245.488 584.853 243.938 583.11 244.326C581.109 244.842 581.109 246.52 583.11 247.295C583.949 247.618 584.917 248.715 585.305 249.813C586.144 252.137 587.112 252.395 587.693 250.458C587.952 249.748 588.339 249.232 588.533 249.361C588.606 249.398 588.852 249.513 589.227 249.688L589.227 249.688C590.171 250.13 591.932 250.955 593.826 251.878C596.473 253.17 599.378 254.525 600.152 254.848C601.573 255.364 601.121 255.752 594.988 259.367C571.038 273.44 551.542 295.324 540.633 320.242C538.954 323.987 537.469 326.311 535.92 327.602C531.982 330.894 524.236 340.254 522.428 343.934C521.46 345.935 519.394 349.034 517.78 350.841C516.231 352.649 514.552 354.973 513.971 355.941C513.455 356.974 512.938 357.684 512.745 357.555C512.616 357.362 512.809 354.198 513.261 350.519C514.23 341.933 514.23 339.673 513.455 339.48C512.293 339.157 510.615 343.676 509.904 349.292C509.388 352.714 509.259 357.878 509.582 363.172L509.969 371.564L505.386 364.14C503.809 361.658 502.257 359.175 501.155 357.412L501.155 357.411L501.154 357.411L501.154 357.41L501.152 357.406L501.15 357.405L501.15 357.404L501.149 357.403L501.149 357.402L501.147 357.399C500.447 356.28 499.93 355.453 499.705 355.102C498.026 352.649 497.058 348.969 497.768 347.743C498.155 347.033 498.091 346.71 497.445 346.71C496.09 346.71 493.443 351.035 491.7 356.006C490.861 358.33 490.021 360.267 489.763 360.267C488.795 360.267 489.247 337.156 490.28 329.732C492.41 315.078 498.026 297.003 500.544 297.003C501.06 297.003 501.512 296.744 501.512 296.357C501.512 295.195 499.834 295.647 498.478 297.132C495.444 300.424 491.442 310.559 488.924 321.34C487.181 328.764 486.084 338.318 485.696 348.711C485.373 357.684 485.503 359.169 486.794 364.075C488.278 369.562 489.44 371.176 491.442 370.402C492.152 370.143 492.475 369.175 492.475 367.368C492.475 365.947 493.249 361.687 494.218 357.878L495.896 351.035L496.606 353.876C497.51 357.168 502.803 367.368 507.58 374.791C510.873 379.827 510.937 380.15 512.035 388.025C512.616 392.48 514.423 403.314 518.619 419.98C522.327 434.706 543.169 449.313 548.374 452.961L548.374 452.961L548.377 452.963C549.061 453.442 549.474 453.732 549.541 453.807C550.187 454.517 551.091 454.904 551.607 454.711C552.188 454.517 552.511 454.775 552.511 455.485C552.511 456.131 552.963 456.97 553.479 457.357C554.125 457.809 554.577 459.552 554.706 462.586C555.028 468.655 559.547 480.275 563.033 484.083C565.293 486.536 570.005 487.569 575.234 486.665C578.656 486.149 579.624 485.762 579.301 484.987C579.107 484.471 580.334 485.116 582.012 486.407C601.637 501.384 621.52 510.357 643.856 514.23C652.507 515.715 666.838 516.554 674.649 515.973C681.556 515.522 681.556 515.522 681.234 516.877C680.782 518.685 681.363 519.782 690.852 535.856C698.405 548.574 699.051 549.413 707.443 557.999C725.26 576.397 744.691 590.664 766.705 601.703C787.427 612.032 820.511 620.617 850.755 623.329C881 626.04 902.722 598.281 902.658 591.18C902.529 581.432 901.173 575.041 897.881 568.844C894.653 562.841 892.523 560.775 882.839 554.319C872.059 547.154 865.409 541.279 861.02 535.017C858.244 531.079 857.211 526.625 857.211 524.237C857.211 522.687 859.212 519.201 862.182 518.491C864.893 517.781 865.409 517.846 868.444 519.33C870.251 520.17 874.964 522.364 878.837 524.237C882.775 526.044 886.584 527.852 887.358 528.239C889.642 528.873 890.608 533.344 891.131 535.767C891.248 536.308 891.343 536.747 891.425 537.018C892.329 540.375 896.606 544.71 899.365 546.185C904.211 548.777 916.151 549.123 919.443 545.573C920.283 544.669 923.065 543.558 923.638 543.894C924.211 544.231 926.285 547.025 926.285 549.284C926.35 553.157 928.351 556.708 932.611 560.258C940.681 566.972 946.943 568.586 953.269 565.616C956.561 564.067 959.26 563.462 959.26 563.462C959.26 563.462 961.951 566.896 962.113 568.069C963.381 577.242 976.96 581.087 980.575 581.474C981.404 581.557 983.016 581.202 984.654 580.842C986.844 580.361 989.079 579.87 989.549 580.4C990.471 581.44 974.12 608.481 971.861 611.902C950.364 644.18 908.532 663.934 857.34 666C824.094 667.355 783.231 658.059 747.79 641.146C725.131 630.236 705.055 616.873 683.558 598.152C679.813 594.924 675.488 591.245 673.939 589.954C672.39 588.727 668.71 584.531 665.87 580.658C661.092 574.202 658.381 571.878 658.381 574.073C658.381 575.041 661.48 580.98 665.03 586.855C666.451 589.179 667.354 590.793 667.032 590.535C666.709 590.276 665.676 594.924 664.708 600.863C661.544 619.907 656.315 638.693 651.022 650.377C648.117 656.704 642.547 661.428 640.868 662.719C634.671 667.432 625.394 669.55 612.547 670.841C596.279 672.455 572.329 668.84 554.06 661.997C549.218 660.19 536.759 654.961 535.92 654.38C535.87 654.329 535.584 652.472 535.185 649.88C535.072 649.149 534.95 648.36 534.823 647.537C532.499 631.592 529.271 570.2 529.271 541.796C529.271 530.047 529.142 527.464 528.367 527.464C526.753 527.464 526.108 529.014 525.398 534.565C523.784 547.218 524.107 613.258 525.85 627.137L526.237 630.301L524.042 629.074C520.685 627.137 507.903 614.162 503.449 608.158C499.678 603.026 497.437 596.452 495.76 591.534C495.37 590.39 495.01 589.336 494.669 588.41C485.309 562.459 488.601 533.339 501.512 507.129C512.487 484.793 525.979 472.399 545.732 466.395C548.96 465.427 551.801 464.394 552.123 464.136C553.35 462.974 545.474 463.555 541.149 464.91C527.076 469.236 512.357 481.049 502.351 496.155C488.278 517.329 481.952 548.574 486.406 575.235C487.439 581.561 491.635 595.247 492.797 596.216C492.9 596.318 493.431 597.432 494.234 599.117C496.454 603.775 500.755 612.796 503.836 616.873C507.58 621.973 518.878 633.076 523.59 636.498L526.56 638.628L527.012 643.857C527.851 653.863 528.174 654.767 532.692 658.124C543.99 666.71 566.261 674.715 586.402 677.555C595.763 678.846 616.098 678.394 623.844 676.716ZM842.041 616.099C804.534 612.806 759.216 594.923 726.422 567.294C712.607 555.609 694.661 532.887 687.56 520.299C686.075 517.716 684.978 516.49 683.687 516.167C682.331 515.78 683.493 515.392 689.045 514.489C712.478 510.486 735.266 500.738 753.665 486.859L756.376 484.858L757.151 486.73C758.894 490.926 765.607 495.187 770.578 495.187C772.579 495.187 779.293 492.153 783.36 489.377L786.136 487.505L788.395 489.764C790.461 491.83 790.848 491.959 794.722 491.959C799.176 491.959 804.534 489.958 807.504 487.117L809.117 485.633L813.701 488.667C816.154 490.41 822.997 494.218 828.871 497.253C837.651 501.771 846.947 507 855.791 512.423L857.211 513.327L855.855 515.134C854.435 517.071 851.79 520.751 851.79 526.367C851.79 532.693 858.368 544.06 870.961 551.866C880.855 557.999 897.881 570.062 897.235 587.694C897.157 589.824 894.782 595.118 891.619 599.895C889.553 602.929 883.808 607.448 878.579 610.095C869.67 614.549 853.983 617.131 842.041 616.099ZM497.833 326.311C499.576 326.698 500.738 327.279 500.479 327.537C499.64 328.376 495.186 327.989 494.153 326.956C492.539 325.407 492.926 324.309 495.186 323.857C496.348 323.664 498.091 322.695 499.059 321.727C500.027 320.759 500.867 320.307 500.867 320.63C500.867 321.469 497.639 324.438 496.025 325.084C494.992 325.536 495.315 325.73 497.833 326.311ZM523.526 327.343C525.398 326.311 525.01 325.6 522.815 325.923C520.621 326.246 520.491 325.988 521.912 323.793C522.493 322.954 522.815 321.727 522.686 321.082C522.493 320.242 522.041 320.63 521.008 322.695C520.233 324.18 519.136 325.407 518.619 325.407C517.005 325.407 516.876 326.698 518.426 327.279C520.427 328.118 521.976 328.118 523.526 327.343ZM501.189 292.096C499.64 292.355 494.799 294.291 490.538 296.422C486.213 298.487 482.533 300.23 482.275 300.166C475.69 299.456 484.857 288.481 501.512 277.249C517.457 266.468 528.238 260.787 538.244 257.882C544.506 256.075 551.542 255.816 553.544 257.301C554.641 258.14 554.254 258.205 549.477 258.269C539.148 258.269 527.205 263.563 507.774 276.539C497.703 283.252 486.019 292.871 486.019 294.42C486.019 294.743 487.891 294.098 490.215 293.065C495.186 290.805 500.286 289.643 502.545 290.16C504.934 290.805 504.417 291.644 501.189 292.096ZM526.172 297.648C532.24 296.422 532.499 296.357 532.499 295.711C532.499 295.389 530.175 295.066 527.27 294.937L522.041 294.743L526.882 289.256C529.529 286.222 532.628 283.188 533.725 282.478C536.114 280.928 536.243 279.831 534.306 279.185L532.821 278.733L534.435 278.152C535.339 277.83 537.018 277.701 538.18 277.894C539.923 278.152 540.31 278.023 540.116 277.12C539.923 276.216 539.212 276.022 536.049 276.087C526.818 276.216 522.88 278.669 530.11 279.831C532.111 280.154 533.79 280.67 533.79 280.993C533.79 281.251 533.467 281.509 533.08 281.509C531.853 281.509 521.46 292.032 520.169 294.614C518.167 298.423 519.265 299.004 526.172 297.648ZM568.779 272.601C566.907 272.73 566.455 273.053 566.584 273.956L566.604 274.088C566.676 274.565 566.718 274.84 566.611 274.923C566.466 275.035 566.051 274.8 565.075 274.246L564.905 274.15C563.679 273.504 563.55 273.182 564.26 272.665C564.712 272.278 565.938 271.697 566.907 271.503L568.714 271.051L567.358 269.631C566.648 268.792 566.261 268.017 566.455 267.759C566.971 267.243 573.298 267.953 574.201 268.663C574.589 268.986 575.17 268.921 575.557 268.534C576.461 267.63 577.687 268.34 577.687 269.76C577.687 270.535 577.494 270.599 576.913 270.018C576.396 269.502 575.944 269.502 575.363 269.954C574.847 270.406 574.46 270.406 574.137 269.889C573.943 269.567 572.717 269.244 571.425 269.244C570.234 269.244 569.671 269.244 569.556 269.471C569.453 269.674 569.711 270.061 570.199 270.793C571.229 272.402 571.168 272.407 568.801 272.599L568.779 272.601ZM558.966 255.429C558.966 254.59 558.192 253.105 557.223 252.137L555.416 250.329L565.099 250.716C570.457 250.975 576.525 251.556 578.656 252.137C580.786 252.653 583.239 253.04 584.143 253.04C585.498 253.04 585.24 252.782 582.723 251.427C578.333 249.167 572.717 248.07 561.936 247.295C549.025 246.391 542.505 247.618 543.731 250.846C543.925 251.491 544.958 251.814 546.507 251.814C549.67 251.814 554.835 253.686 556.578 255.429C558.45 257.301 558.966 257.301 558.966 255.429ZM527.463 426.371C532.692 433.085 539.6 440.702 542.828 443.284C544.764 444.834 546.443 446.125 546.572 446.125C546.636 446.125 545.216 443.155 543.409 439.54C536.114 425.015 531.853 410.555 529.852 393.9C529.4 390.22 528.69 387.121 527.915 385.83C526.366 383.248 526.366 379.891 527.98 376.728C528.819 375.05 529.271 372.919 529.271 370.595V367.045L526.172 370.273C523.138 373.436 520.233 374.727 520.233 372.79C520.233 371.37 525.01 364.527 527.528 362.397C529.529 360.718 529.787 360.137 530.433 355.102C530.885 352.068 531.918 346.71 532.757 343.159C533.661 339.609 534.177 336.575 534.048 336.446C533.596 335.994 518.426 353.417 516.36 358.975C515.906 360.196 514.681 362.332 513.713 363.623L512.035 365.778C512.035 365.778 512.556 368.796 513.132 372.589C513.714 376.42 513.987 379.054 514.23 381.4C514.556 384.539 514.828 387.162 515.714 391.447C516.747 396.74 517.78 401.324 518.038 401.646C518.232 402.034 519.071 405.003 519.91 408.296C521.718 415.59 524.752 422.82 527.463 426.371ZM789.428 487.44L788.072 486.084C788.072 486.084 810.573 457.497 814.605 446.964C817.681 438.926 819.492 436.646 821.935 436.646C823.302 436.646 824.417 436.958 824.933 437.733C825.837 439.088 826.708 440.767 825.546 446.512C823.609 455.808 820.64 461.941 811.731 475.175C809.666 478.209 807.019 481.566 805.857 482.728C803.145 485.245 797.046 487.827 793.495 488.408C791.236 488.731 790.59 488.602 789.428 487.44Z" fill="#00160A"/>
<path d="M968.181 550.591C976.213 528.709 974.997 524.047 973.604 523.591C973.604 523.591 970.537 525.334 969.181 529.013C966.664 535.921 958.046 553.996 954.818 557.224C951.01 561.033 951.01 561.033 947.136 561.033C943.263 561.033 932.092 555.2 930.571 549.45C928.138 540.25 938.615 508.291 938.873 506.484L937.13 505.257C935.968 506.355 920.854 552.189 900.979 540.246C898.704 538.879 893.878 532.435 893.491 529.013C891.34 519.072 901.21 484.309 902.888 477.169C904.391 470.777 912.212 464.846 921.831 464.846C936.614 464.846 934.628 477.768 941.25 482.322C944.184 484.339 949.006 480.681 950.493 480.403C958.821 478.854 962.012 480.658 968.117 485.503C972.829 489.243 976.316 496.645 980.154 499.254C982.285 500.702 984.547 498.722 985.288 498.35C988.326 496.825 994.843 497.962 996.65 499.254C999.3 500.409 1005.79 506.651 1006.82 510.281C1011.47 526.735 996.787 563.213 991.245 570.056C982.07 581.383 960.15 572.474 968.181 550.591Z" fill="white"/>
<path fill-rule="evenodd" clip-rule="evenodd" d="M597.054 490.632C614.742 501.8 632.981 509.094 653.767 511.096C670.164 512.645 692.273 510.515 708.153 505.35C721.516 501.025 739.592 489.043 751.663 478.908C775.097 459.283 789.88 428.629 796.336 396.094C797.239 391.51 798.618 379.989 798.553 368.563C798.553 355.264 792.701 318.924 774.968 297.97C738.394 254.753 678.274 235.284 627.748 251.919C609.522 257.919 590.116 268.791 575.462 282.993C556.999 301.004 543.378 325.535 537.955 350.582C532.275 377.05 539.664 408.682 552.511 434.633C562.775 455.291 579.688 479.593 597.054 490.632ZM769.416 412.62C757.28 449.093 725.648 476.336 685.882 484.599C679.814 485.825 675.617 486.277 667.096 486.406C661.093 486.6 655.089 486.535 653.862 486.406C626.039 483.049 604.865 472.785 585.369 453.29C576.848 444.704 573.233 440.056 567.939 430.889C559.612 416.364 555.158 401.516 553.802 383.635C549.154 322.372 592.987 271.309 654.702 266.015C678.91 263.949 705.765 271.373 726.164 285.834C733.717 291.192 747.403 304.748 751.663 311.075C753.406 313.592 770.32 338.317 773.289 352.519C777.098 370.982 775.613 394.092 769.416 412.62Z" fill="white"/>
<path fill-rule="evenodd" clip-rule="evenodd" d="M798.576 368.563C798.576 411.893 778.08 459.265 751.628 479.496C739.008 489.148 722.515 500.835 708.153 505.351C687.106 511.968 653.767 511.096 653.767 511.096C653.767 511.096 687.779 506.55 700.383 501.477C736.527 486.932 756.257 464.603 768.44 443.18C792.489 400.891 798.576 367.511 798.576 368.563Z" fill="#E7EAEE"/>
<path fill-rule="evenodd" clip-rule="evenodd" d="M654.508 478.661C637.272 476.466 620.165 470.333 606.35 461.231C598.151 455.873 585.757 443.285 579.753 434.312C571.167 421.401 565.486 407.586 562.71 392.738C560.709 381.958 560.774 365.367 562.775 355.748C564.841 345.936 567.488 338.447 572.2 328.958C577.687 317.983 583.497 309.914 592.212 301.199C607.06 286.351 624.296 276.926 644.825 272.407C651.474 270.987 675.553 269.825 676.392 270.923C676.586 271.245 677.877 272.085 679.232 272.795C680.588 273.569 684.203 276.281 687.173 278.928C691.627 282.801 693.628 285.254 697.502 291.322C700.148 295.454 702.279 299.198 702.279 299.521C702.279 300.231 704.344 301.522 705.506 301.522C707.12 301.522 708.218 296.68 708.54 288.159C708.734 283.446 709.121 279.573 709.38 279.573C710.283 279.573 720.225 285.06 724.873 288.159C733.975 294.227 743.077 302.748 749.791 311.657C752.825 315.659 753.277 316.692 753.277 319.145C753.277 321.405 753.923 323.148 755.924 326.634C760.959 335.413 764.897 346.452 767.286 358.653C768.835 366.852 768.835 382.345 767.221 390.931C762.831 414.558 749.791 438.056 732.813 452.968C718.417 465.556 703.118 473.303 685.042 477.112C678.845 478.467 660.253 479.371 654.508 478.661ZM608.351 434.505C608.932 433.86 609.319 432.892 609.126 432.44C609.067 432.304 608.259 431.924 607.076 431.368C604.318 430.071 599.523 427.817 597.445 425.468C589.182 416.043 586.148 409.006 584.276 394.481C582.468 380.344 583.986 370.786 587.245 355.425C588.835 347.932 593.06 341.743 595.688 337.892C597.475 335.273 598.525 333.736 597.506 333.606C594.988 333.218 594.601 333.412 591.954 335.93C586.273 341.352 583.691 345.678 580.98 354.005C576.783 367.045 575.973 402.286 584.276 418.173C592.578 434.06 606.866 436.184 608.351 434.505ZM700.148 380.279C699.052 390.307 694.403 404.81 688.98 411.136C686.463 414.106 677.221 419.206 669.42 418.173C661.885 417.175 655.993 413.654 650.957 406.101C646.632 399.581 644.398 391.667 642.888 381.699C640.28 364.487 651.667 344.451 656.574 339.48C661.544 334.38 665.095 332.573 669.614 332.508C674.004 332.508 676.844 333.477 681.298 336.64C689.432 342.321 702.279 360.792 700.148 380.279ZM613.128 326.892C614.419 325.407 614.613 324.697 614.225 321.921C613.967 319.339 613.451 318.306 612.095 317.209C609.707 315.272 606.737 315.272 604.542 317.338C602.993 318.823 602.799 319.339 602.993 322.89C603.187 326.698 603.316 326.957 605.446 328.119C608.286 329.668 611.062 329.216 613.128 326.892ZM653.41 287.061C641.791 295.389 636.755 298.811 631.526 302.038C627.395 304.62 626.104 304.685 626.104 302.361C626.104 301.134 627.007 299.779 629.331 297.649L632.559 294.679L626.297 293.84C619.261 292.936 612.418 290.999 610.933 289.515C608.48 286.997 610.61 286.416 617.582 287.707C620.681 288.223 626.685 288.869 630.945 288.998L638.692 289.321L644.308 285.254C656.638 276.345 669.42 271.31 675.553 272.859C679.362 273.763 678.91 274.796 674.585 275.312C669.614 275.893 666.58 277.572 653.41 287.061Z" fill="white"/>
<path d="M670.001 409.329C670.001 409.006 670.388 408.684 670.905 408.684C671.421 408.684 672.067 409.006 672.261 409.329C672.454 409.716 672.067 409.975 671.357 409.975C670.582 409.975 670.001 409.716 670.001 409.329Z" fill="white"/>
<path d="M673.874 408.748C673.874 408.038 675.488 407.393 677.296 407.393C678.716 407.457 678.716 407.457 677.489 408.361C676.069 409.458 673.874 409.652 673.874 408.748Z" fill="white"/>
<path d="M663.868 407.069C663.675 406.553 663.416 405.649 663.223 405.132C663.029 404.487 663.352 404.164 664.191 404.164C664.901 404.164 665.482 404.551 665.482 405.068C665.482 405.584 665.676 406.423 665.87 407.004C666.128 407.715 665.934 408.037 665.224 408.037C664.643 408.037 663.997 407.585 663.868 407.069Z" fill="white"/>
<path d="M667.29 405.455C666.967 403.519 667.677 402.873 670.001 402.873C670.711 402.873 671.292 403.519 671.55 404.616C672.067 406.488 671.228 407.392 668.968 407.392C667.935 407.392 667.483 406.94 667.29 405.455Z" fill="white"/>
<path d="M660.705 405.777C659.479 404.809 659.479 404.809 660.834 404.809C661.673 404.809 662.254 405.196 662.254 405.777C662.254 406.939 662.254 406.939 660.705 405.777Z" fill="white"/>
<path d="M673.681 405.713C672.841 404.874 673.229 402.357 674.262 401.969C676.134 401.259 676.973 401.582 677.36 403.26C677.619 404.229 677.748 405.068 677.619 405.132C677.102 405.713 674.068 406.101 673.681 405.713Z" fill="white"/>
<path d="M679.426 404.358C679.232 404.164 679.039 403.325 679.039 402.55C679.039 401.453 679.555 401.001 681.105 400.678C682.46 400.42 683.299 400.549 683.687 401.065C684.332 402.098 684.332 403.389 683.751 403.712C682.589 404.358 679.878 404.745 679.426 404.358Z" fill="white"/>
<path d="M657.736 402.357C657.736 401.582 658.317 400.937 659.156 400.743C660.834 400.291 660.77 400.227 661.092 401.905C661.222 402.873 660.899 403.261 659.543 403.39C658.123 403.583 657.736 403.325 657.736 402.357Z" fill="white"/>
<path d="M662.642 402.42C661.738 401.452 662.319 399.645 663.546 399.645C664.385 399.645 664.837 400.096 664.837 400.871C664.837 402.098 663.352 403.131 662.642 402.42Z" fill="white"/>
<path d="M666.515 400.484C665.999 399.257 667.096 398.354 669.226 398.354C670.195 398.354 670.647 398.741 670.647 399.58C670.647 400.29 670.066 400.936 669.226 401.194C667.096 401.71 666.967 401.71 666.515 400.484Z" fill="white"/>
<path d="M685.172 400.29C685.365 399.967 685.688 399.645 685.882 399.645C686.075 399.645 686.011 399.967 685.817 400.29C685.623 400.677 685.301 400.936 685.107 400.936C684.913 400.936 684.978 400.677 685.172 400.29Z" fill="white"/>
<path d="M672.325 399.193C671.809 397.902 672.454 397.256 674.52 396.934C675.682 396.804 676.198 397.063 676.327 397.966C676.779 400.097 673.1 401.259 672.325 399.193Z" fill="white"/>
<path d="M656.832 398.095C656.251 395.965 656.38 395.771 658.058 395.771C658.962 395.771 659.672 396.03 659.672 396.352C659.672 396.675 659.866 397.385 660.06 397.902C660.253 398.547 659.866 398.935 658.769 399.128C657.542 399.387 657.09 399.128 656.832 398.095Z" fill="white"/>
<path d="M678.393 397.387C678.393 396.225 678.845 395.708 680.072 395.385C681.879 394.933 682.912 395.837 682.912 397.903C682.912 398.742 682.396 399 680.653 399C678.652 399 678.393 398.807 678.393 397.387Z" fill="white"/>
<path d="M654.895 397.386C654.702 396.87 654.831 396.418 655.153 396.418C655.541 396.418 655.799 396.87 655.799 397.386C655.799 397.903 655.67 398.355 655.541 398.355C655.412 398.355 655.153 397.903 654.895 397.386Z" fill="white"/>
<path d="M661.415 397.903C660.512 397.064 661.028 395.256 662.19 394.933C662.9 394.74 663.61 394.804 663.804 394.998C664.579 395.708 664.127 397.58 663.158 397.967C661.932 398.419 661.932 398.419 661.415 397.903Z" fill="white"/>
<path d="M684.461 397.45C683.751 395.578 684.526 394.157 686.334 393.964C687.689 393.77 688.077 394.028 688.077 395.061C688.077 397.191 687.366 398.353 686.075 398.353C685.365 398.353 684.655 397.966 684.461 397.45Z" fill="white"/>
<path d="M665.934 396.611C665.159 395.901 665.418 394.61 666.515 394.223C667.742 393.771 670.324 395.062 669.614 395.772C668.71 396.547 666.386 397.128 665.934 396.611Z" fill="white"/>
<path d="M671.55 394.998C670.969 394.094 673.035 392.545 674.714 392.545C675.488 392.545 675.811 392.932 675.682 393.642C675.424 394.933 672.131 395.966 671.55 394.998Z" fill="white"/>
<path d="M653.862 394.545C653.862 394.222 653.669 393.512 653.475 392.931C653.281 392.35 653.346 391.898 653.733 391.898C654.572 391.898 655.218 394.352 654.443 394.868C654.121 395.062 653.862 394.933 653.862 394.545Z" fill="white"/>
<path d="M655.605 393.061C655.218 391.64 655.993 390.607 657.477 390.607C658.317 390.607 659.156 393.125 658.639 393.964C657.929 395.062 655.928 394.416 655.605 393.061Z" fill="white"/>
<path d="M660.124 393.384C659.156 392.416 659.737 390.092 661.028 389.769C661.996 389.511 662.513 389.834 663.029 390.996C663.417 391.835 663.61 392.674 663.481 392.803C662.836 393.384 660.512 393.836 660.124 393.384Z" fill="white"/>
<path d="M677.554 393.384C676.715 392.545 677.102 392.028 679.039 391.318C680.653 390.802 681.105 390.866 681.427 391.641C682.008 393.19 678.781 394.675 677.554 393.384Z" fill="white"/>
<path d="M683.235 391.898C682.589 390.865 683.493 389.961 685.172 389.961C687.173 389.961 687.754 391.639 685.946 392.156C684.01 392.672 683.687 392.608 683.235 391.898Z" fill="white"/>
<path d="M688.722 390.349C688.722 389.381 689.884 388.348 690.401 388.864C690.852 389.316 689.949 391.253 689.303 391.253C688.98 391.253 688.722 390.866 688.722 390.349Z" fill="white"/>
<path d="M653.023 389.509C652.765 389.315 652.571 388.476 652.636 387.766C652.636 386.54 652.7 386.54 653.281 387.96C653.927 389.509 653.798 390.284 653.023 389.509Z" fill="white"/>
<path d="M654.25 388.541C653.669 386.282 653.733 386.088 655.412 386.088C657.284 386.088 658.446 388.476 657.026 389.38C655.541 390.284 654.702 390.026 654.25 388.541Z" fill="white"/>
<path d="M676.457 389.833C676.457 389.64 676.779 388.607 677.167 387.445C678.071 384.863 680.072 384.733 680.524 387.251C680.717 388.219 680.782 389.059 680.717 389.123C680.395 389.511 676.457 390.092 676.457 389.833Z" fill="white"/>
<path d="M658.833 388.219C658.575 388.025 658.381 387.25 658.381 386.54C658.381 385.507 658.575 385.443 659.35 386.088C659.866 386.54 660.318 387.315 660.318 387.767C660.318 388.735 659.543 388.993 658.833 388.219Z" fill="white"/>
<path d="M682.073 386.928C681.686 384.927 682.525 384.023 684.526 384.281C685.494 384.411 685.817 384.992 685.817 386.412C685.817 388.026 685.559 388.413 684.139 388.542C682.719 388.736 682.396 388.413 682.073 386.928Z" fill="white"/>
<path d="M688.399 387.186C687.56 384.604 687.818 383.829 689.561 383.635C691.111 383.442 691.304 383.635 691.304 385.314C691.304 386.734 690.917 387.315 689.949 387.573C689.239 387.767 688.528 387.573 688.399 387.186Z" fill="white"/>
<path d="M652.055 383.506C652.055 382.279 652.184 381.763 652.378 382.408C652.507 382.989 652.507 384.022 652.378 384.668C652.184 385.249 652.055 384.732 652.055 383.506Z" fill="white"/>
<path d="M653.669 384.345C652.83 383.57 653.217 381.053 654.25 380.665C655.734 380.084 656.445 380.794 656.445 382.925C656.445 384.28 656.122 384.797 655.283 384.797C654.637 384.797 653.862 384.603 653.669 384.345Z" fill="white"/>
<path d="M657.542 382.602C657.284 381.634 657.155 380.601 657.413 380.408C658.058 379.762 658.446 380.795 658.252 382.667L658.058 384.474L657.542 382.602Z" fill="white"/>
<path d="M678.393 382.151C678.393 381.441 678.716 381.053 679.039 381.247C679.426 381.441 679.684 382.086 679.684 382.603C679.684 383.119 679.426 383.506 679.039 383.506C678.716 383.506 678.393 382.925 678.393 382.151Z" fill="white"/>
<path d="M681.298 382.99C680.395 382.022 681.105 380.279 682.589 379.891C684.462 379.439 684.526 379.439 685.107 381.311C685.494 382.473 685.236 382.732 683.558 382.99C682.525 383.184 681.492 383.119 681.298 382.99Z" fill="white"/>
<path d="M687.237 381.764C686.527 381.118 686.721 378.988 687.431 378.988C687.818 378.988 688.077 378.73 688.077 378.342C688.077 378.02 687.689 377.697 687.173 377.697C686.075 377.697 685.172 374.534 686.075 373.63C687.237 372.468 688.528 373.694 689.303 376.858C689.755 378.536 690.207 380.473 690.401 381.118C690.659 381.958 690.401 382.216 689.174 382.216C688.335 382.216 687.431 382.022 687.237 381.764Z" fill="white"/>
<path d="M690.723 378.342C690.271 376.405 689.109 372.532 688.27 369.691C686.979 365.56 686.85 364.527 687.56 364.075C688.012 363.752 688.593 363.494 688.787 363.494C689.497 363.494 692.079 376.728 691.821 379.31L691.627 381.892L690.723 378.342Z" fill="white"/>
<path d="M651.409 378.02C651.409 376.987 651.538 376.6 651.732 377.245C651.861 377.826 651.861 378.73 651.732 379.182C651.538 379.569 651.409 379.117 651.409 378.02Z" fill="white"/>
<path d="M652.7 377.89C652.959 375.631 654.831 375.114 655.347 377.18C655.799 378.859 655.928 378.665 653.991 379.31C652.636 379.698 652.507 379.569 652.7 377.89Z" fill="white"/>
<path d="M679.943 377.309C679.426 375.437 680.524 374.34 682.589 374.598C684.139 374.792 684.72 377.567 683.429 378.407C681.815 379.44 680.33 378.988 679.943 377.309Z" fill="white"/>
<path d="M656.445 376.792C656.445 375.694 656.767 375.113 657.477 375.113C658.123 375.113 658.381 375.565 658.252 376.533C657.929 378.599 656.445 378.793 656.445 376.792Z" fill="white"/>
<path d="M650.699 374.081C650.699 373.371 650.893 373.178 651.087 373.694C651.28 374.146 651.216 374.727 651.022 374.921C650.828 375.179 650.635 374.792 650.699 374.081Z" fill="white"/>
<path d="M651.926 373.887C651.926 372.919 652.313 372.531 653.281 372.531C654.185 372.531 654.508 372.854 654.379 373.629C654.056 375.307 651.926 375.501 651.926 373.887Z" fill="white"/>
<path d="M655.476 373.307C655.024 372.145 655.024 372.145 656.961 371.628C658.123 371.241 658.381 371.435 658.381 372.403C658.381 373.952 656.057 374.727 655.476 373.307Z" fill="white"/>
<path d="M678.845 372.402C678.393 370.788 679.233 369.949 681.492 369.949C682.589 369.949 682.912 370.337 682.912 371.563C682.912 372.531 682.525 373.177 682.008 373.177C681.492 373.177 680.653 373.371 680.136 373.564C679.555 373.758 679.103 373.371 678.845 372.402Z" fill="white"/>
<path d="M684.461 370.918C683.945 369.627 684.72 368.658 686.204 368.658C687.108 368.658 687.431 369.11 687.431 370.272C687.431 371.434 687.108 371.886 686.14 371.886C685.43 371.886 684.655 371.434 684.461 370.918Z" fill="white"/>
<path d="M651.28 370.014C651.28 368.658 652.765 367.109 653.41 367.819C653.669 368.013 653.862 368.916 653.862 369.756C653.862 370.789 653.475 371.24 652.571 371.24C651.732 371.24 651.28 370.789 651.28 370.014Z" fill="white"/>
<path d="M654.831 369.241C654.314 367.627 654.895 366.917 657.09 366.594C659.091 366.336 659.737 368.466 657.994 369.757C656.315 370.983 655.283 370.79 654.831 369.241Z" fill="white"/>
<path d="M678.2 368.851C677.748 368.464 677.554 366.076 677.941 366.076C678.006 366.076 678.974 365.817 680.136 365.495C682.073 364.914 682.202 364.978 682.138 366.721C682.073 368.012 681.686 368.658 680.717 368.916C678.974 369.368 678.716 369.368 678.2 368.851Z" fill="white"/>
<path d="M675.811 367.368C675.811 366.917 676.005 366.723 676.263 366.917C676.457 367.175 676.457 367.562 676.263 367.82C676.005 368.014 675.811 367.82 675.811 367.368Z" fill="white"/>
<path d="M683.041 366.335C683.235 365.238 685.236 363.624 685.688 364.14C685.882 364.334 686.205 365.109 686.398 365.948C686.85 367.239 686.656 367.368 684.849 367.368C683.3 367.368 682.848 367.11 683.041 366.335Z" fill="white"/>
<path d="M651.926 366.27C651.926 365.948 652.248 365.302 652.571 364.786C653.088 364.011 653.217 364.075 653.217 365.302C653.217 366.077 652.959 366.722 652.571 366.722C652.248 366.722 651.926 366.529 651.926 366.27Z" fill="white"/>
<path d="M653.862 364.851C653.862 363.043 655.218 362.462 656.251 363.818C656.896 364.786 656.896 365.109 656.251 365.561C654.895 366.4 653.862 366.142 653.862 364.851Z" fill="white"/>
<path d="M673.487 364.01C672.325 362.719 672.325 362.655 673.423 363.042C674.068 363.3 674.907 363.494 675.23 363.494C675.553 363.494 675.811 363.946 675.811 364.462C675.811 365.818 674.907 365.689 673.487 364.01Z" fill="white"/>
<path d="M659.608 363.946C656.832 361.816 656.445 357.039 659.027 357.039C660.77 357.039 662.384 359.75 662.125 362.268C661.932 364.592 661.157 365.108 659.608 363.946Z" fill="white"/>
<path d="M677.296 364.333C677.554 364.139 677.941 364.139 678.2 364.333C678.393 364.591 678.2 364.785 677.748 364.785C677.296 364.785 677.102 364.591 677.296 364.333Z" fill="white"/>
<path d="M687.044 361.815C687.237 361.234 687.431 360.653 687.431 360.524C687.431 360.395 687.754 360.266 688.077 360.266C688.464 360.266 688.722 360.847 688.722 361.557C688.722 362.331 688.27 362.848 687.689 362.848C686.979 362.848 686.785 362.525 687.044 361.815Z" fill="white"/>
<path d="M653.217 361.621C653.217 360.137 654.572 357.684 655.347 357.684C656.703 357.684 655.734 361.815 654.314 362.073C653.733 362.202 653.217 362.009 653.217 361.621Z" fill="white"/>
<path d="M667.742 360.913L665.805 360.461L667.548 360.009C669.356 359.493 670.647 359.88 670.647 360.978C670.647 361.623 670.582 361.623 667.742 360.913Z" fill="white"/>
<path d="M665.482 357.814C665.482 355.167 666.967 354.78 668.323 357.104C669.226 358.653 669.291 358.976 668.452 358.976C667.935 358.976 667.096 359.17 666.515 359.363C665.741 359.686 665.482 359.299 665.482 357.814Z" fill="white"/>
<path d="M676.715 358.716C673.81 357.425 671.938 354.004 671.938 349.937C671.938 347.032 672.196 346.322 673.939 344.708C675.036 343.675 676.134 342.836 676.457 342.836C677.877 342.836 683.106 347.807 684.849 350.905L686.85 354.456L684.72 356.715C682.267 359.297 679.555 360.008 676.715 358.716Z" fill="white"/>
<path d="M663.223 357.038C663.029 356.715 663.158 356.393 663.481 356.393C663.868 356.393 664.191 356.715 664.191 357.038C664.191 357.425 664.062 357.684 663.933 357.684C663.739 357.684 663.416 357.425 663.223 357.038Z" fill="white"/>
<path d="M654.766 356.006C654.96 355.425 655.153 354.844 655.153 354.715C655.153 354.586 655.734 354.457 656.445 354.457C658.058 354.457 658.123 355.49 656.509 356.394C654.766 357.297 654.314 357.233 654.766 356.006Z" fill="white"/>
<path d="M659.866 355.232C658.381 355.038 657.929 354.199 658.898 353.618C659.156 353.424 660.318 353.101 661.48 352.843C663.223 352.456 663.546 352.585 663.546 353.682C663.546 355.038 662.19 355.619 659.866 355.232Z" fill="white"/>
<path d="M664.837 353.037C664.837 352.263 664.901 351.811 665.03 351.94C665.095 352.069 665.611 352.715 666.063 353.36C666.838 354.264 666.773 354.458 665.87 354.458C665.224 354.458 664.837 353.941 664.837 353.037Z" fill="white"/>
<path d="M655.799 352.584C655.799 352.196 656.122 351.744 656.445 351.551C656.832 351.357 657.09 351.615 657.09 352.132C657.09 352.713 656.832 353.165 656.445 353.165C656.122 353.165 655.799 352.906 655.799 352.584Z" fill="white"/>
<path d="M658.188 351.616C657.671 350.325 662.255 348.905 663.029 350.131C663.61 351.164 663.029 351.616 660.576 352.133C659.091 352.455 658.446 352.326 658.188 351.616Z" fill="white"/>
<path d="M664.256 349.55C664.256 348.84 664.449 348.646 664.643 349.163C664.837 349.615 664.772 350.196 664.578 350.389C664.385 350.648 664.191 350.26 664.256 349.55Z" fill="white"/>
<path d="M658.769 348.518C659.543 347.097 661.803 344.773 662.384 344.773C663.029 344.773 663.094 347.808 662.448 348.195C662.125 348.324 661.093 348.647 660.124 348.905C658.704 349.228 658.381 349.163 658.769 348.518Z" fill="white"/>
<path d="M663.933 347.032C663.223 345.096 663.546 344.257 665.095 343.998C666.709 343.676 666.709 343.676 665.676 345.677C664.385 348.259 664.449 348.259 663.933 347.032Z" fill="white"/>
<path d="M663.546 343.16C663.546 343.031 664.837 342.127 666.451 341.223C668.387 340.061 669.743 339.674 670.711 339.932C671.873 340.319 671.55 340.577 668.71 341.933C665.547 343.353 663.546 343.87 663.546 343.16Z" fill="white"/>
<path d="M699.374 285.963C697.631 283.445 693.951 279.378 691.304 276.925C688.658 274.472 686.915 272.471 687.431 272.471C688.851 272.471 699.696 275.44 702.408 276.602C704.667 277.571 704.732 277.7 704.151 279.701C703.828 280.863 703.57 283.768 703.57 286.156C703.57 288.609 703.376 290.546 703.118 290.546C702.795 290.546 701.181 288.48 699.374 285.963Z" fill="white"/>
<path d="M568.004 481.5C565.357 480.145 564.776 479.37 561.419 472.721C556.578 463.296 556.449 461.101 561.032 466.459C562.84 468.589 567.036 472.979 570.328 476.207C575.944 481.63 576.203 482.017 574.33 481.759C572.975 481.565 572.458 481.694 572.781 482.211C573.556 483.373 571.103 483.05 568.004 481.5Z" fill="white"/>
<path fill-rule="evenodd" clip-rule="evenodd" d="M676.191 599.114C675.655 597.842 676.253 596.376 677.525 595.84L678.916 595.25C692.438 589.464 700.2 585.988 705.474 580.469C710.748 574.951 711.379 566.844 712.369 561.912C712.641 560.558 715.707 562.935 717.06 563.207C718.414 563.479 719.291 564.797 719.019 566.151C717.828 572.081 714.62 577.735 709.455 583.102C704.308 588.451 694.342 594.185 679.465 600.448C678.193 600.984 676.727 600.387 676.191 599.114Z" fill="#00160A"/>
<path fill-rule="evenodd" clip-rule="evenodd" d="M737.341 341.54C738.528 340.833 740.062 341.223 740.768 342.409C747.84 354.288 751.628 367.868 751.628 381.996C751.628 424.798 716.93 459.496 674.128 459.496C662.754 459.496 651.723 457.043 641.622 452.369C640.368 451.789 635.635 447.173 640.402 449.05C645.17 450.928 663.616 455.142 674.261 455.142C714.301 455.142 742.628 422.037 742.628 381.996C742.628 368.774 737.341 357.039 736.472 344.967C736.371 343.567 736.155 342.246 737.341 341.54Z" fill="#00160A"/>
<path fill-rule="evenodd" clip-rule="evenodd" d="M489.747 530.752C490.63 529.691 492.207 527.548 493.268 528.431C497.62 532.056 502.264 536.256 507.232 537.067C512.402 537.911 518.535 537.911 525.623 537.053C526.994 536.887 528.239 537.863 528.405 539.234C528.571 540.605 527.594 541.85 526.224 542.016C518.696 542.928 512.1 542.928 506.427 542.002C500.552 541.043 495.088 538.455 490.068 534.273C489.007 533.389 488.863 531.813 489.747 530.752Z" fill="#00160A"/>
<path d="M542.827 443.285C539.6 440.703 532.692 433.085 527.463 426.371C524.752 422.821 521.718 415.591 519.91 408.296C519.071 405.004 518.232 402.034 518.038 401.647C517.78 401.324 516.747 396.741 515.714 391.447C514.165 383.959 514.493 381.546 513.132 372.589C512.556 368.797 512.035 365.779 512.035 365.779L513.713 363.624C514.681 362.333 515.906 360.196 516.36 358.976C518.426 353.417 533.596 335.994 534.048 336.446C534.177 336.575 533.661 339.609 532.757 343.16C531.918 346.71 530.885 352.068 530.433 355.103C529.787 360.138 529.529 360.719 527.528 362.397C525.01 364.528 520.233 371.37 520.233 372.791C520.233 374.727 523.138 373.436 526.172 370.273L529.271 367.045V370.596C529.271 372.92 528.819 375.05 527.98 376.729C526.366 379.892 526.366 383.249 527.915 385.831C528.69 387.122 529.4 390.221 529.852 393.9C531.853 410.555 536.114 425.016 543.408 439.541C545.216 443.156 546.636 446.125 546.572 446.125C546.443 446.125 544.764 444.834 542.827 443.285Z" fill="white"/>
<path fill-rule="evenodd" clip-rule="evenodd" d="M811.441 483.114L816.089 485.18C817.053 485.625 827.685 490.733 840.457 496.87C861.048 506.764 887.199 519.329 887.358 519.329C887.616 519.329 888.828 516.528 889.101 513.261C889.747 506.225 892.135 496.671 894.911 490.021C896.202 487.052 897.235 483.341 897.235 483.018C897.235 482.87 896.186 482.447 894.468 481.754C892.422 480.929 889.429 479.722 886.132 478.143C869.864 470.332 838.038 454.387 834.1 451.998C830.227 449.739 829.452 449.545 829.452 451.03C829.452 452.967 825.514 461.94 822.48 466.782C820.866 469.428 817.703 474.205 815.444 477.369L811.441 483.114ZM886.261 507.709C888.112 508.782 884.905 510.356 884.13 510.614C879.569 511.002 874.199 510.144 869.799 507.58C867.499 505.949 849.384 495.885 837.368 489.21C831.875 486.158 827.656 483.814 826.806 483.308C824.094 481.694 821.512 479.951 821.06 479.434C819.704 477.691 820.996 476.917 824.804 477.239C827.094 477.434 882.262 505.392 886.261 507.709Z" fill="white"/>
<path d="M765.091 488.926C763.412 488.345 761.605 487.054 760.443 485.569L758.506 483.18L765.349 476.402C775.871 466.073 783.618 454.785 790.59 442.197C792.914 438.001 799.821 421.078 800.661 419.206C801.952 416.495 802.92 415.462 805.696 413.913C808.988 411.976 812.732 411.33 814.346 412.428C817.445 414.494 817.445 421.014 814.346 432.246C810.925 444.576 806.341 453.42 796.852 466.138C795.367 468.074 792.591 471.883 790.59 474.53C785.232 481.631 781.746 485.052 777.033 487.699C772.385 490.281 769.674 490.604 765.091 488.926Z" fill="white"/>
<path d="M789.428 487.44L788.072 486.085C788.072 486.085 810.573 457.498 814.605 446.964C817.681 438.926 819.492 436.646 821.935 436.646C823.301 436.646 824.417 436.958 824.933 437.733C825.837 439.089 826.708 440.767 825.546 446.513C823.609 455.808 820.64 461.941 811.731 475.175C809.665 478.209 807.019 481.566 805.857 482.728C803.145 485.246 797.046 487.828 793.495 488.409C791.236 488.732 790.59 488.602 789.428 487.44Z" fill="white"/>
<path fill-rule="evenodd" clip-rule="evenodd" d="M827.223 457.547C828.525 454.568 829.452 451.97 829.452 451.03C829.452 449.545 830.227 449.739 834.1 451.998C838.038 454.387 869.864 470.332 886.132 478.143C892.2 481.048 897.235 482.695 897.235 483.018C897.235 483.341 825.842 460.704 827.223 457.547Z" fill="#E7EAEE"/>
<path fill-rule="evenodd" clip-rule="evenodd" d="M606.35 461.231C598.151 455.873 585.757 443.285 579.753 434.312C571.167 421.4 565.486 407.586 562.71 392.738C560.709 381.957 560.774 365.367 562.775 355.748C564.841 345.936 567.488 338.447 572.2 328.958C577.687 317.983 583.497 309.914 592.212 301.199C600.758 292.653 562.775 327.995 572.2 391.229C579.753 444.219 612.213 465.094 606.35 461.231Z" fill="#E7EAEE"/>
</g>
<defs>
<clipPath id="clip0_523_4983">
<rect width="1448" height="966" rx="50" fill="white"/>
</clipPath>
</defs>
</svg>
