<svg xmlns="http://www.w3.org/2000/svg" width="25" height="27" viewBox="0 0 25 27" fill="none">
<path d="M1.125 26.9998C0.826631 26.9998 0.540483 26.8813 0.329505 26.6703C0.118527 26.4593 0 26.1732 0 25.8748V1.12481C3.34698e-05 0.929316 0.0510083 0.737206 0.1479 0.567415C0.244792 0.397624 0.384257 0.256012 0.552547 0.156536C0.720838 0.0570606 0.912146 0.00315545 1.10761 0.000134373C1.30308 -0.0028867 1.49597 0.0450806 1.66725 0.139308L24.1672 12.5143C24.3436 12.6114 24.4907 12.7541 24.5932 12.9274C24.6956 13.1008 24.7497 13.2985 24.7497 13.4998C24.7497 13.7012 24.6956 13.8988 24.5932 14.0722C24.4907 14.2455 24.3436 14.3882 24.1672 14.4853L1.66725 26.8603C1.50114 26.9518 1.31462 26.9997 1.125 26.9998Z" fill="#272727"/>
</svg>