<svg xmlns="http://www.w3.org/2000/svg" width="22" height="22" viewBox="0 0 22 22" fill="none">
<mask id="mask0_635_3450" style="mask-type:alpha" maskUnits="userSpaceOnUse" x="0" y="0" width="22" height="22">
<rect width="22" height="22" fill="#D9D9D9"/>
</mask>
<g mask="url(#mask0_635_3450)">
<path d="M10.0833 9.16683C10.5875 9.16683 11.0191 8.98732 11.3781 8.62829C11.7372 8.26926 11.9167 7.83766 11.9167 7.3335C11.9167 6.82933 11.7372 6.39773 11.3781 6.0387C11.0191 5.67968 10.5875 5.50016 10.0833 5.50016C9.57917 5.50016 9.14757 5.67968 8.78854 6.0387C8.42951 6.39773 8.25 6.82933 8.25 7.3335C8.25 7.83766 8.42951 8.26926 8.78854 8.62829C9.14757 8.98732 9.57917 9.16683 10.0833 9.16683ZM10.0833 12.8335C10.7708 12.8335 11.4163 12.6884 12.0198 12.3981C12.6233 12.1078 13.1465 11.6953 13.5896 11.1606C13.0549 10.8092 12.4934 10.5418 11.9052 10.3585C11.317 10.1752 10.7097 10.0835 10.0833 10.0835C9.45694 10.0835 8.84965 10.1752 8.26146 10.3585C7.67326 10.5418 7.11181 10.8092 6.57708 11.1606C7.02014 11.6953 7.5434 12.1078 8.14687 12.3981C8.75035 12.6884 9.39583 12.8335 10.0833 12.8335ZM18.8833 19.2502L14.575 14.9418C13.9486 15.4307 13.2573 15.8127 12.501 16.0877C11.7448 16.3627 10.9389 16.5002 10.0833 16.5002C8.03611 16.5002 6.30208 15.7897 4.88125 14.3689C3.46042 12.9481 2.75 11.2141 2.75 9.16683C2.75 7.11961 3.46042 5.38558 4.88125 3.96475C6.30208 2.54391 8.03611 1.8335 10.0833 1.8335C12.1306 1.8335 13.8646 2.54391 15.2854 3.96475C16.7062 5.38558 17.4167 7.11961 17.4167 9.16683C17.4167 10.0224 17.2792 10.8283 17.0042 11.5845C16.7292 12.3408 16.3472 13.0321 15.8583 13.6585L20.1667 17.9668L18.8833 19.2502ZM10.0833 14.6668C11.6111 14.6668 12.9097 14.1321 13.9792 13.0627C15.0486 11.9932 15.5833 10.6946 15.5833 9.16683C15.5833 7.63905 15.0486 6.34044 13.9792 5.271C12.9097 4.20155 11.6111 3.66683 10.0833 3.66683C8.55556 3.66683 7.25694 4.20155 6.1875 5.271C5.11806 6.34044 4.58333 7.63905 4.58333 9.16683C4.58333 10.6946 5.11806 11.9932 6.1875 13.0627C7.25694 14.1321 8.55556 14.6668 10.0833 14.6668Z" fill="#7EACB5"/>
</g>
</svg>